<mxfile host="app.diagrams.net" modified="2023-10-23T16:24:32.452Z" agent="Mozilla/5.0 (Windows NT 10.0; Win64; x64) AppleWebKit/537.36 (KHTML, like Gecko) Chrome/115.0.0.0 Safari/537.36 Edg/115.0.1901.188" version="22.0.6" etag="EDQ_bksZaexb4OterUQ0" type="github">
  <diagram name="Pagina-1" id="2K9K8B1YWTyNbMokl5k0">
    <mxGraphModel>
      <root>
        <mxCell id="0" />
        <mxCell id="1" parent="0" />
      </root>
    </mxGraphModel>
  </diagram>
</mxfile>
